<?xml version="1.0" encoding="UTF-8" standalone="no"?><svg xmlns="http://www.w3.org/2000/svg" xmlns:xlink="http://www.w3.org/1999/xlink" contentScriptType="application/ecmascript" contentStyleType="text/css" height="381px" preserveAspectRatio="none" style="width:3061px;height:381px;" version="1.1" viewBox="0 0 3061 381" width="3061px" zoomAndPan="magnify"><defs><filter height="300%" id="fl1mrnq5ghzhn" width="300%" x="-1" y="-1"><feGaussianBlur result="blurOut" stdDeviation="2.0"/><feColorMatrix in="blurOut" result="blurOut2" type="matrix" values="0 0 0 0 0 0 0 0 0 0 0 0 0 0 0 0 0 0 .4 0"/><feOffset dx="4.0" dy="4.0" in="blurOut2" result="blurOut3"/><feBlend in="SourceGraphic" in2="blurOut3" mode="normal"/></filter></defs><g><!--MD5=[67324f0c47be1d6a0a4a7cc495787fb1]
class SistemaMesario--><rect codeLine="1" fill="#FEFECE" filter="url(#fl1mrnq5ghzhn)" height="60.8047" id="SistemaMesario" style="stroke:#A80036;stroke-width:1.5;" width="169" x="7" y="19.5"/><ellipse cx="40.45" cy="35.5" fill="#ADD1B2" rx="11" ry="11" style="stroke:#A80036;stroke-width:1.0;"/><path d="M42.7938,31.1719 C41.8563,30.7344 41.2625,30.5938 40.3875,30.5938 C37.7625,30.5938 35.7625,32.6719 35.7625,35.3906 L35.7625,36.5156 C35.7625,39.0938 37.8719,40.9844 40.7625,40.9844 C41.9813,40.9844 43.1375,40.6875 43.8875,40.1406 C44.4656,39.7344 44.7938,39.2813 44.7938,38.8906 C44.7938,38.4375 44.4031,38.0469 43.9344,38.0469 C43.7156,38.0469 43.5125,38.125 43.325,38.3125 C42.8719,38.7969 42.8719,38.7969 42.6844,38.8906 C42.2625,39.1563 41.575,39.2813 40.8094,39.2813 C38.7625,39.2813 37.4656,38.1875 37.4656,36.4844 L37.4656,35.3906 C37.4656,33.6094 38.7156,32.2969 40.45,32.2969 C41.0281,32.2969 41.6375,32.4531 42.1063,32.7031 C42.5906,32.9844 42.7625,33.2031 42.8563,33.6094 C42.9188,34.0156 42.95,34.1406 43.0906,34.2656 C43.2313,34.4063 43.4656,34.5156 43.6844,34.5156 C43.95,34.5156 44.2156,34.375 44.3875,34.1563 C44.4969,34 44.5281,33.8125 44.5281,33.3906 L44.5281,31.9688 C44.5281,31.5313 44.5125,31.4063 44.4188,31.25 C44.2625,30.9844 43.9813,30.8438 43.6844,30.8438 C43.3875,30.8438 43.1844,30.9375 42.9656,31.25 L42.7938,31.1719 Z " fill="#000000"/><text fill="#000000" font-family="sans-serif" font-size="12" lengthAdjust="spacingAndGlyphs" textLength="96" x="58.55" y="39.6543">SistemaMesario</text><line style="stroke:#A80036;stroke-width:1.5;" x1="8" x2="175" y1="51.5" y2="51.5"/><line style="stroke:#A80036;stroke-width:1.5;" x1="8" x2="175" y1="59.5" y2="59.5"/><ellipse cx="18" cy="70.5" fill="#84BE84" rx="3" ry="3" style="stroke:#038048;stroke-width:1.0;"/><text fill="#000000" font-family="sans-serif" font-size="11" lengthAdjust="spacingAndGlyphs" textLength="143" x="27" y="73.7104">iniciaNovaVotacao(): void</text><!--MD5=[f884fc27599339af8f59e71707b66ff3]
class Candidato--><rect codeLine="4" fill="#FEFECE" filter="url(#fl1mrnq5ghzhn)" height="86.4141" id="Candidato" style="stroke:#A80036;stroke-width:1.5;" width="156" x="211.5" y="7"/><ellipse cx="255.3" cy="23" fill="#ADD1B2" rx="11" ry="11" style="stroke:#A80036;stroke-width:1.0;"/><path d="M257.6438,18.6719 C256.7063,18.2344 256.1125,18.0938 255.2375,18.0938 C252.6125,18.0938 250.6125,20.1719 250.6125,22.8906 L250.6125,24.0156 C250.6125,26.5938 252.7219,28.4844 255.6125,28.4844 C256.8313,28.4844 257.9875,28.1875 258.7375,27.6406 C259.3156,27.2344 259.6438,26.7813 259.6438,26.3906 C259.6438,25.9375 259.2531,25.5469 258.7844,25.5469 C258.5656,25.5469 258.3625,25.625 258.175,25.8125 C257.7219,26.2969 257.7219,26.2969 257.5344,26.3906 C257.1125,26.6563 256.425,26.7813 255.6594,26.7813 C253.6125,26.7813 252.3156,25.6875 252.3156,23.9844 L252.3156,22.8906 C252.3156,21.1094 253.5656,19.7969 255.3,19.7969 C255.8781,19.7969 256.4875,19.9531 256.9563,20.2031 C257.4406,20.4844 257.6125,20.7031 257.7063,21.1094 C257.7688,21.5156 257.8,21.6406 257.9406,21.7656 C258.0813,21.9063 258.3156,22.0156 258.5344,22.0156 C258.8,22.0156 259.0656,21.875 259.2375,21.6563 C259.3469,21.5 259.3781,21.3125 259.3781,20.8906 L259.3781,19.4688 C259.3781,19.0313 259.3625,18.9063 259.2688,18.75 C259.1125,18.4844 258.8313,18.3438 258.5344,18.3438 C258.2375,18.3438 258.0344,18.4375 257.8156,18.75 L257.6438,18.6719 Z " fill="#000000"/><text fill="#000000" font-family="sans-serif" font-size="12" lengthAdjust="spacingAndGlyphs" textLength="60" x="275.7" y="27.1543">Candidato</text><line style="stroke:#A80036;stroke-width:1.5;" x1="212.5" x2="366.5" y1="39" y2="39"/><ellipse cx="222.5" cy="50" fill="none" rx="3" ry="3" style="stroke:#038048;stroke-width:1.0;"/><text fill="#000000" font-family="sans-serif" font-size="11" lengthAdjust="spacingAndGlyphs" textLength="95" x="231.5" y="53.2104">numero: number</text><ellipse cx="222.5" cy="62.8047" fill="none" rx="3" ry="3" style="stroke:#038048;stroke-width:1.0;"/><text fill="#000000" font-family="sans-serif" font-size="11" lengthAdjust="spacingAndGlyphs" textLength="71" x="231.5" y="66.0151">nome: string</text><ellipse cx="222.5" cy="75.6094" fill="none" rx="3" ry="3" style="stroke:#038048;stroke-width:1.0;"/><text fill="#000000" font-family="sans-serif" font-size="11" lengthAdjust="spacingAndGlyphs" textLength="130" x="231.5" y="78.8198">imagem: ImageBitmap</text><line style="stroke:#A80036;stroke-width:1.5;" x1="212.5" x2="366.5" y1="85.4141" y2="85.4141"/><!--MD5=[a522ec545f7e1ee147a82d79e0fdce5a]
class Voto--><rect codeLine="9" fill="#FEFECE" filter="url(#fl1mrnq5ghzhn)" height="73.6094" id="Voto" style="stroke:#A80036;stroke-width:1.5;" width="121" x="31" y="223"/><ellipse cx="73.45" cy="239" fill="#ADD1B2" rx="11" ry="11" style="stroke:#A80036;stroke-width:1.0;"/><path d="M75.7938,234.6719 C74.8563,234.2344 74.2625,234.0938 73.3875,234.0938 C70.7625,234.0938 68.7625,236.1719 68.7625,238.8906 L68.7625,240.0156 C68.7625,242.5938 70.8719,244.4844 73.7625,244.4844 C74.9813,244.4844 76.1375,244.1875 76.8875,243.6406 C77.4656,243.2344 77.7938,242.7813 77.7938,242.3906 C77.7938,241.9375 77.4031,241.5469 76.9344,241.5469 C76.7156,241.5469 76.5125,241.625 76.325,241.8125 C75.8719,242.2969 75.8719,242.2969 75.6844,242.3906 C75.2625,242.6563 74.575,242.7813 73.8094,242.7813 C71.7625,242.7813 70.4656,241.6875 70.4656,239.9844 L70.4656,238.8906 C70.4656,237.1094 71.7156,235.7969 73.45,235.7969 C74.0281,235.7969 74.6375,235.9531 75.1063,236.2031 C75.5906,236.4844 75.7625,236.7031 75.8563,237.1094 C75.9188,237.5156 75.95,237.6406 76.0906,237.7656 C76.2313,237.9063 76.4656,238.0156 76.6844,238.0156 C76.95,238.0156 77.2156,237.875 77.3875,237.6563 C77.4969,237.5 77.5281,237.3125 77.5281,236.8906 L77.5281,235.4688 C77.5281,235.0313 77.5125,234.9063 77.4188,234.75 C77.2625,234.4844 76.9813,234.3438 76.6844,234.3438 C76.3875,234.3438 76.1844,234.4375 75.9656,234.75 L75.7938,234.6719 Z " fill="#000000"/><text fill="#000000" font-family="sans-serif" font-size="12" lengthAdjust="spacingAndGlyphs" textLength="28" x="93.55" y="243.1543">Voto</text><line style="stroke:#A80036;stroke-width:1.5;" x1="32" x2="151" y1="255" y2="255"/><ellipse cx="42" cy="266" fill="none" rx="3" ry="3" style="stroke:#038048;stroke-width:1.0;"/><text fill="#000000" font-family="sans-serif" font-size="11" lengthAdjust="spacingAndGlyphs" textLength="74" x="51" y="269.2104">horario: Date</text><ellipse cx="42" cy="278.8047" fill="none" rx="3" ry="3" style="stroke:#038048;stroke-width:1.0;"/><text fill="#000000" font-family="sans-serif" font-size="11" lengthAdjust="spacingAndGlyphs" textLength="95" x="51" y="282.0151">numero: number</text><line style="stroke:#A80036;stroke-width:1.5;" x1="32" x2="151" y1="288.6094" y2="288.6094"/><!--MD5=[20121508f9c08ead18365bff96bc0a56]
class DispositivoDeRegistro--><rect codeLine="13" fill="#FEFECE" filter="url(#fl1mrnq5ghzhn)" height="60.8047" id="DispositivoDeRegistro" style="stroke:#A80036;stroke-width:1.5;" width="195" x="1004" y="19.5"/><ellipse cx="1034.3" cy="35.5" fill="#A9DCDF" rx="11" ry="11" style="stroke:#A80036;stroke-width:1.0;"/><path d="M1036.3781,37.3125 L1036.7688,38.2969 L1036.3781,38.2969 C1035.925,38.2969 1035.8156,38.3125 1035.6594,38.4219 C1035.4094,38.5781 1035.2531,38.8594 1035.2531,39.1563 C1035.2531,39.4219 1035.3938,39.6719 1035.6125,39.8281 C1035.7531,39.9531 1035.9563,40 1036.3781,40 L1038.7375,40 C1039.0969,40 1039.3156,39.9688 1039.4563,39.875 C1039.7063,39.7344 1039.8625,39.4375 1039.8625,39.1563 C1039.8625,38.875 1039.7219,38.625 1039.5031,38.4688 C1039.3313,38.3281 1039.175,38.2969 1038.7063,38.2969 L1035.3156,30.0938 L1031.6438,30.0938 C1031.1906,30.0938 1031.0656,30.1094 1030.9094,30.2031 C1030.6594,30.375 1030.5031,30.6563 1030.5031,30.9375 C1030.5031,31.2188 1030.6438,31.4688 1030.8625,31.6406 C1031.0344,31.75 1031.2063,31.7813 1031.6438,31.7813 L1032.7219,31.7813 L1030.0813,38.2969 C1029.6594,38.2969 1029.5031,38.3125 1029.3469,38.4219 C1029.0969,38.5781 1028.9406,38.8594 1028.9406,39.1563 C1028.9406,39.7188 1029.3156,40 1030.0656,40 L1032.3313,40 C1032.6906,40 1032.9094,39.9688 1033.0344,39.875 C1033.3,39.7344 1033.4406,39.4375 1033.4406,39.1563 C1033.4406,38.875 1033.3156,38.625 1033.0969,38.4531 C1032.925,38.3281 1032.7844,38.2969 1032.3313,38.2969 L1031.9406,38.2969 L1032.3313,37.3125 L1036.3781,37.3125 Z M1035.675,35.6094 L1033.0031,35.6094 L1034.3469,32.3438 L1035.675,35.6094 Z " fill="#000000"/><text fill="#000000" font-family="sans-serif" font-size="12" font-style="italic" lengthAdjust="spacingAndGlyphs" textLength="129" x="1051.7" y="39.6543">DispositivoDeRegistro</text><line style="stroke:#A80036;stroke-width:1.5;" x1="1005" x2="1198" y1="51.5" y2="51.5"/><line style="stroke:#A80036;stroke-width:1.5;" x1="1005" x2="1198" y1="59.5" y2="59.5"/><ellipse cx="1015" cy="70.5" fill="#84BE84" rx="3" ry="3" style="stroke:#038048;stroke-width:1.0;"/><text fill="#000000" font-family="sans-serif" font-size="11" font-style="italic" lengthAdjust="spacingAndGlyphs" textLength="169" x="1024" y="73.7104">registraVoto(voto: Voto): void</text><!--MD5=[dc9239d2df57113bafa1af30a67705e2]
class DispositivoDeExibicao--><rect codeLine="16" fill="#FEFECE" filter="url(#fl1mrnq5ghzhn)" height="60.8047" id="DispositivoDeExibicao" style="stroke:#A80036;stroke-width:1.5;" width="294" x="1731.5" y="19.5"/><ellipse cx="1809.25" cy="35.5" fill="#A9DCDF" rx="11" ry="11" style="stroke:#A80036;stroke-width:1.0;"/><path d="M1811.3281,37.3125 L1811.7188,38.2969 L1811.3281,38.2969 C1810.875,38.2969 1810.7656,38.3125 1810.6094,38.4219 C1810.3594,38.5781 1810.2031,38.8594 1810.2031,39.1563 C1810.2031,39.4219 1810.3438,39.6719 1810.5625,39.8281 C1810.7031,39.9531 1810.9063,40 1811.3281,40 L1813.6875,40 C1814.0469,40 1814.2656,39.9688 1814.4063,39.875 C1814.6563,39.7344 1814.8125,39.4375 1814.8125,39.1563 C1814.8125,38.875 1814.6719,38.625 1814.4531,38.4688 C1814.2813,38.3281 1814.125,38.2969 1813.6563,38.2969 L1810.2656,30.0938 L1806.5938,30.0938 C1806.1406,30.0938 1806.0156,30.1094 1805.8594,30.2031 C1805.6094,30.375 1805.4531,30.6563 1805.4531,30.9375 C1805.4531,31.2188 1805.5938,31.4688 1805.8125,31.6406 C1805.9844,31.75 1806.1563,31.7813 1806.5938,31.7813 L1807.6719,31.7813 L1805.0313,38.2969 C1804.6094,38.2969 1804.4531,38.3125 1804.2969,38.4219 C1804.0469,38.5781 1803.8906,38.8594 1803.8906,39.1563 C1803.8906,39.7188 1804.2656,40 1805.0156,40 L1807.2813,40 C1807.6406,40 1807.8594,39.9688 1807.9844,39.875 C1808.25,39.7344 1808.3906,39.4375 1808.3906,39.1563 C1808.3906,38.875 1808.2656,38.625 1808.0469,38.4531 C1807.875,38.3281 1807.7344,38.2969 1807.2813,38.2969 L1806.8906,38.2969 L1807.2813,37.3125 L1811.3281,37.3125 Z M1810.625,35.6094 L1807.9531,35.6094 L1809.2969,32.3438 L1810.625,35.6094 Z " fill="#000000"/><text fill="#000000" font-family="sans-serif" font-size="12" font-style="italic" lengthAdjust="spacingAndGlyphs" textLength="130" x="1829.75" y="39.6543">DispositivoDeExibicao</text><line style="stroke:#A80036;stroke-width:1.5;" x1="1732.5" x2="2024.5" y1="51.5" y2="51.5"/><line style="stroke:#A80036;stroke-width:1.5;" x1="1732.5" x2="2024.5" y1="59.5" y2="59.5"/><ellipse cx="1742.5" cy="70.5" fill="#84BE84" rx="3" ry="3" style="stroke:#038048;stroke-width:1.0;"/><text fill="#000000" font-family="sans-serif" font-size="11" font-style="italic" lengthAdjust="spacingAndGlyphs" textLength="268" x="1751.5" y="73.7104">exibeCandidatos(candidatos: Candidato[]): void</text><!--MD5=[15716a0a98c6d94323ced1532fb4146a]
class DispositivoDeExibicaoComImagem--><rect codeLine="19" fill="#FEFECE" filter="url(#fl1mrnq5ghzhn)" height="60.8047" id="DispositivoDeExibicaoComImagem" style="stroke:#A80036;stroke-width:1.5;" width="294" x="2218.5" y="19.5"/><ellipse cx="2258.25" cy="35.5" fill="#A9DCDF" rx="11" ry="11" style="stroke:#A80036;stroke-width:1.0;"/><path d="M2260.3281,37.3125 L2260.7188,38.2969 L2260.3281,38.2969 C2259.875,38.2969 2259.7656,38.3125 2259.6094,38.4219 C2259.3594,38.5781 2259.2031,38.8594 2259.2031,39.1563 C2259.2031,39.4219 2259.3438,39.6719 2259.5625,39.8281 C2259.7031,39.9531 2259.9063,40 2260.3281,40 L2262.6875,40 C2263.0469,40 2263.2656,39.9688 2263.4063,39.875 C2263.6563,39.7344 2263.8125,39.4375 2263.8125,39.1563 C2263.8125,38.875 2263.6719,38.625 2263.4531,38.4688 C2263.2813,38.3281 2263.125,38.2969 2262.6563,38.2969 L2259.2656,30.0938 L2255.5938,30.0938 C2255.1406,30.0938 2255.0156,30.1094 2254.8594,30.2031 C2254.6094,30.375 2254.4531,30.6563 2254.4531,30.9375 C2254.4531,31.2188 2254.5938,31.4688 2254.8125,31.6406 C2254.9844,31.75 2255.1563,31.7813 2255.5938,31.7813 L2256.6719,31.7813 L2254.0313,38.2969 C2253.6094,38.2969 2253.4531,38.3125 2253.2969,38.4219 C2253.0469,38.5781 2252.8906,38.8594 2252.8906,39.1563 C2252.8906,39.7188 2253.2656,40 2254.0156,40 L2256.2813,40 C2256.6406,40 2256.8594,39.9688 2256.9844,39.875 C2257.25,39.7344 2257.3906,39.4375 2257.3906,39.1563 C2257.3906,38.875 2257.2656,38.625 2257.0469,38.4531 C2256.875,38.3281 2256.7344,38.2969 2256.2813,38.2969 L2255.8906,38.2969 L2256.2813,37.3125 L2260.3281,37.3125 Z M2259.625,35.6094 L2256.9531,35.6094 L2258.2969,32.3438 L2259.625,35.6094 Z " fill="#000000"/><text fill="#000000" font-family="sans-serif" font-size="12" font-style="italic" lengthAdjust="spacingAndGlyphs" textLength="207" x="2277.75" y="39.6543">DispositivoDeExibicaoComImagem</text><line style="stroke:#A80036;stroke-width:1.5;" x1="2219.5" x2="2511.5" y1="51.5" y2="51.5"/><line style="stroke:#A80036;stroke-width:1.5;" x1="2219.5" x2="2511.5" y1="59.5" y2="59.5"/><ellipse cx="2229.5" cy="70.5" fill="#84BE84" rx="3" ry="3" style="stroke:#038048;stroke-width:1.0;"/><text fill="#000000" font-family="sans-serif" font-size="11" font-style="italic" lengthAdjust="spacingAndGlyphs" textLength="268" x="2238.5" y="73.7104">exibeCandidatos(candidatos: Candidato[]): void</text><!--MD5=[fff970aaa31e7670cd8f14dddeec0c13]
class DispositivoDeEntrada--><rect codeLine="22" fill="#FEFECE" filter="url(#fl1mrnq5ghzhn)" height="60.8047" id="DispositivoDeEntrada" style="stroke:#A80036;stroke-width:1.5;" width="160" x="2750.5" y="19.5"/><ellipse cx="2765.5" cy="35.5" fill="#A9DCDF" rx="11" ry="11" style="stroke:#A80036;stroke-width:1.0;"/><path d="M2767.5781,37.3125 L2767.9688,38.2969 L2767.5781,38.2969 C2767.125,38.2969 2767.0156,38.3125 2766.8594,38.4219 C2766.6094,38.5781 2766.4531,38.8594 2766.4531,39.1563 C2766.4531,39.4219 2766.5938,39.6719 2766.8125,39.8281 C2766.9531,39.9531 2767.1563,40 2767.5781,40 L2769.9375,40 C2770.2969,40 2770.5156,39.9688 2770.6563,39.875 C2770.9063,39.7344 2771.0625,39.4375 2771.0625,39.1563 C2771.0625,38.875 2770.9219,38.625 2770.7031,38.4688 C2770.5313,38.3281 2770.375,38.2969 2769.9063,38.2969 L2766.5156,30.0938 L2762.8438,30.0938 C2762.3906,30.0938 2762.2656,30.1094 2762.1094,30.2031 C2761.8594,30.375 2761.7031,30.6563 2761.7031,30.9375 C2761.7031,31.2188 2761.8438,31.4688 2762.0625,31.6406 C2762.2344,31.75 2762.4063,31.7813 2762.8438,31.7813 L2763.9219,31.7813 L2761.2813,38.2969 C2760.8594,38.2969 2760.7031,38.3125 2760.5469,38.4219 C2760.2969,38.5781 2760.1406,38.8594 2760.1406,39.1563 C2760.1406,39.7188 2760.5156,40 2761.2656,40 L2763.5313,40 C2763.8906,40 2764.1094,39.9688 2764.2344,39.875 C2764.5,39.7344 2764.6406,39.4375 2764.6406,39.1563 C2764.6406,38.875 2764.5156,38.625 2764.2969,38.4531 C2764.125,38.3281 2763.9844,38.2969 2763.5313,38.2969 L2763.1406,38.2969 L2763.5313,37.3125 L2767.5781,37.3125 Z M2766.875,35.6094 L2764.2031,35.6094 L2765.5469,32.3438 L2766.875,35.6094 Z " fill="#000000"/><text fill="#000000" font-family="sans-serif" font-size="12" font-style="italic" lengthAdjust="spacingAndGlyphs" textLength="128" x="2779.5" y="39.6543">DispositivoDeEntrada</text><line style="stroke:#A80036;stroke-width:1.5;" x1="2751.5" x2="2909.5" y1="51.5" y2="51.5"/><line style="stroke:#A80036;stroke-width:1.5;" x1="2751.5" x2="2909.5" y1="59.5" y2="59.5"/><ellipse cx="2761.5" cy="70.5" fill="#84BE84" rx="3" ry="3" style="stroke:#038048;stroke-width:1.0;"/><text fill="#000000" font-family="sans-serif" font-size="11" font-style="italic" lengthAdjust="spacingAndGlyphs" textLength="107" x="2770.5" y="73.7104">recebeVoto(): Voto</text><!--MD5=[089848c89fb6008ffecd357fc617602f]
class DispositvoDeFeedback--><rect codeLine="25" fill="#FEFECE" filter="url(#fl1mrnq5ghzhn)" height="60.8047" id="DispositvoDeFeedback" style="stroke:#A80036;stroke-width:1.5;" width="167" x="2548" y="19.5"/><ellipse cx="2563" cy="35.5" fill="#A9DCDF" rx="11" ry="11" style="stroke:#A80036;stroke-width:1.0;"/><path d="M2565.0781,37.3125 L2565.4688,38.2969 L2565.0781,38.2969 C2564.625,38.2969 2564.5156,38.3125 2564.3594,38.4219 C2564.1094,38.5781 2563.9531,38.8594 2563.9531,39.1563 C2563.9531,39.4219 2564.0938,39.6719 2564.3125,39.8281 C2564.4531,39.9531 2564.6563,40 2565.0781,40 L2567.4375,40 C2567.7969,40 2568.0156,39.9688 2568.1563,39.875 C2568.4063,39.7344 2568.5625,39.4375 2568.5625,39.1563 C2568.5625,38.875 2568.4219,38.625 2568.2031,38.4688 C2568.0313,38.3281 2567.875,38.2969 2567.4063,38.2969 L2564.0156,30.0938 L2560.3438,30.0938 C2559.8906,30.0938 2559.7656,30.1094 2559.6094,30.2031 C2559.3594,30.375 2559.2031,30.6563 2559.2031,30.9375 C2559.2031,31.2188 2559.3438,31.4688 2559.5625,31.6406 C2559.7344,31.75 2559.9063,31.7813 2560.3438,31.7813 L2561.4219,31.7813 L2558.7813,38.2969 C2558.3594,38.2969 2558.2031,38.3125 2558.0469,38.4219 C2557.7969,38.5781 2557.6406,38.8594 2557.6406,39.1563 C2557.6406,39.7188 2558.0156,40 2558.7656,40 L2561.0313,40 C2561.3906,40 2561.6094,39.9688 2561.7344,39.875 C2562,39.7344 2562.1406,39.4375 2562.1406,39.1563 C2562.1406,38.875 2562.0156,38.625 2561.7969,38.4531 C2561.625,38.3281 2561.4844,38.2969 2561.0313,38.2969 L2560.6406,38.2969 L2561.0313,37.3125 L2565.0781,37.3125 Z M2564.375,35.6094 L2561.7031,35.6094 L2563.0469,32.3438 L2564.375,35.6094 Z " fill="#000000"/><text fill="#000000" font-family="sans-serif" font-size="12" font-style="italic" lengthAdjust="spacingAndGlyphs" textLength="135" x="2577" y="39.6543">DispositvoDeFeedback</text><line style="stroke:#A80036;stroke-width:1.5;" x1="2549" x2="2714" y1="51.5" y2="51.5"/><line style="stroke:#A80036;stroke-width:1.5;" x1="2549" x2="2714" y1="59.5" y2="59.5"/><ellipse cx="2559" cy="70.5" fill="#84BE84" rx="3" ry="3" style="stroke:#038048;stroke-width:1.0;"/><text fill="#000000" font-family="sans-serif" font-size="11" font-style="italic" lengthAdjust="spacingAndGlyphs" textLength="91" x="2568" y="73.7104">feedback(): void</text><!--MD5=[cbcc974e9a63ca7d732f64d54e257c66]
class ArmazenamentoInterno--><rect codeLine="28" fill="#FEFECE" filter="url(#fl1mrnq5ghzhn)" height="112.0234" id="ArmazenamentoInterno" style="stroke:#A80036;stroke-width:1.5;" width="192" x="665.5" y="204"/><ellipse cx="689.5" cy="220" fill="#ADD1B2" rx="11" ry="11" style="stroke:#A80036;stroke-width:1.0;"/><path d="M691.8438,215.6719 C690.9063,215.2344 690.3125,215.0938 689.4375,215.0938 C686.8125,215.0938 684.8125,217.1719 684.8125,219.8906 L684.8125,221.0156 C684.8125,223.5938 686.9219,225.4844 689.8125,225.4844 C691.0313,225.4844 692.1875,225.1875 692.9375,224.6406 C693.5156,224.2344 693.8438,223.7813 693.8438,223.3906 C693.8438,222.9375 693.4531,222.5469 692.9844,222.5469 C692.7656,222.5469 692.5625,222.625 692.375,222.8125 C691.9219,223.2969 691.9219,223.2969 691.7344,223.3906 C691.3125,223.6563 690.625,223.7813 689.8594,223.7813 C687.8125,223.7813 686.5156,222.6875 686.5156,220.9844 L686.5156,219.8906 C686.5156,218.1094 687.7656,216.7969 689.5,216.7969 C690.0781,216.7969 690.6875,216.9531 691.1563,217.2031 C691.6406,217.4844 691.8125,217.7031 691.9063,218.1094 C691.9688,218.5156 692,218.6406 692.1406,218.7656 C692.2813,218.9063 692.5156,219.0156 692.7344,219.0156 C693,219.0156 693.2656,218.875 693.4375,218.6563 C693.5469,218.5 693.5781,218.3125 693.5781,217.8906 L693.5781,216.4688 C693.5781,216.0313 693.5625,215.9063 693.4688,215.75 C693.3125,215.4844 693.0313,215.3438 692.7344,215.3438 C692.4375,215.3438 692.2344,215.4375 692.0156,215.75 L691.8438,215.6719 Z " fill="#000000"/><text fill="#000000" font-family="sans-serif" font-size="12" lengthAdjust="spacingAndGlyphs" textLength="140" x="705.5" y="224.1543">ArmazenamentoInterno</text><line style="stroke:#A80036;stroke-width:1.5;" x1="666.5" x2="856.5" y1="236" y2="236"/><rect fill="none" height="6" style="stroke:#C82930;stroke-width:1.0;" width="6" x="673.5" y="244"/><text fill="#000000" font-family="sans-serif" font-size="11" lengthAdjust="spacingAndGlyphs" textLength="139" x="685.5" y="250.2104">_candidatos: Candidato[]</text><rect fill="none" height="6" style="stroke:#C82930;stroke-width:1.0;" width="6" x="673.5" y="256.8047"/><text fill="#000000" font-family="sans-serif" font-size="11" lengthAdjust="spacingAndGlyphs" textLength="78" x="685.5" y="263.0151">_votos: Voto[]</text><ellipse cx="676.5" cy="272.6094" fill="none" rx="3" ry="3" style="stroke:#038048;stroke-width:1.0;"/><text fill="#000000" font-family="sans-serif" font-size="11" lengthAdjust="spacingAndGlyphs" textLength="72" x="685.5" y="275.8198">votos: Voto[]</text><ellipse cx="676.5" cy="285.4141" fill="none" rx="3" ry="3" style="stroke:#038048;stroke-width:1.0;"/><text fill="#000000" font-family="sans-serif" font-size="11" lengthAdjust="spacingAndGlyphs" textLength="133" x="685.5" y="288.6245">candidatos: Candidato[]</text><line style="stroke:#A80036;stroke-width:1.5;" x1="666.5" x2="856.5" y1="295.2188" y2="295.2188"/><ellipse cx="676.5" cy="306.2188" fill="#84BE84" rx="3" ry="3" style="stroke:#038048;stroke-width:1.0;"/><text fill="#000000" font-family="sans-serif" font-size="11" lengthAdjust="spacingAndGlyphs" textLength="166" x="685.5" y="309.4292">registraVoto(voto: Voto): void</text><!--MD5=[c27cd13f2a713506f73cc92870bd27c0]
class ImpressoraTermica--><rect codeLine="35" fill="#FEFECE" filter="url(#fl1mrnq5ghzhn)" height="60.8047" id="ImpressoraTermica" style="stroke:#A80036;stroke-width:1.5;" width="192" x="892.5" y="229.5"/><ellipse cx="926.85" cy="245.5" fill="#ADD1B2" rx="11" ry="11" style="stroke:#A80036;stroke-width:1.0;"/><path d="M929.1938,241.1719 C928.2563,240.7344 927.6625,240.5938 926.7875,240.5938 C924.1625,240.5938 922.1625,242.6719 922.1625,245.3906 L922.1625,246.5156 C922.1625,249.0938 924.2719,250.9844 927.1625,250.9844 C928.3813,250.9844 929.5375,250.6875 930.2875,250.1406 C930.8656,249.7344 931.1938,249.2813 931.1938,248.8906 C931.1938,248.4375 930.8031,248.0469 930.3344,248.0469 C930.1156,248.0469 929.9125,248.125 929.725,248.3125 C929.2719,248.7969 929.2719,248.7969 929.0844,248.8906 C928.6625,249.1563 927.975,249.2813 927.2094,249.2813 C925.1625,249.2813 923.8656,248.1875 923.8656,246.4844 L923.8656,245.3906 C923.8656,243.6094 925.1156,242.2969 926.85,242.2969 C927.4281,242.2969 928.0375,242.4531 928.5063,242.7031 C928.9906,242.9844 929.1625,243.2031 929.2563,243.6094 C929.3188,244.0156 929.35,244.1406 929.4906,244.2656 C929.6313,244.4063 929.8656,244.5156 930.0844,244.5156 C930.35,244.5156 930.6156,244.375 930.7875,244.1563 C930.8969,244 930.9281,243.8125 930.9281,243.3906 L930.9281,241.9688 C930.9281,241.5313 930.9125,241.4063 930.8188,241.25 C930.6625,240.9844 930.3813,240.8438 930.0844,240.8438 C929.7875,240.8438 929.5844,240.9375 929.3656,241.25 L929.1938,241.1719 Z " fill="#000000"/><text fill="#000000" font-family="sans-serif" font-size="12" lengthAdjust="spacingAndGlyphs" textLength="117" x="945.15" y="249.6543">ImpressoraTermica</text><line style="stroke:#A80036;stroke-width:1.5;" x1="893.5" x2="1083.5" y1="261.5" y2="261.5"/><line style="stroke:#A80036;stroke-width:1.5;" x1="893.5" x2="1083.5" y1="269.5" y2="269.5"/><ellipse cx="903.5" cy="280.5" fill="#84BE84" rx="3" ry="3" style="stroke:#038048;stroke-width:1.0;"/><text fill="#000000" font-family="sans-serif" font-size="11" lengthAdjust="spacingAndGlyphs" textLength="166" x="912.5" y="283.7104">registraVoto(voto: Voto): void</text><!--MD5=[4ee44082397c5611d50cf8659124f07a]
class ServidorAuditoria--><rect codeLine="38" fill="#FEFECE" filter="url(#fl1mrnq5ghzhn)" height="60.8047" id="ServidorAuditoria" style="stroke:#A80036;stroke-width:1.5;" width="192" x="1119.5" y="229.5"/><ellipse cx="1159.25" cy="245.5" fill="#ADD1B2" rx="11" ry="11" style="stroke:#A80036;stroke-width:1.0;"/><path d="M1161.5938,241.1719 C1160.6563,240.7344 1160.0625,240.5938 1159.1875,240.5938 C1156.5625,240.5938 1154.5625,242.6719 1154.5625,245.3906 L1154.5625,246.5156 C1154.5625,249.0938 1156.6719,250.9844 1159.5625,250.9844 C1160.7813,250.9844 1161.9375,250.6875 1162.6875,250.1406 C1163.2656,249.7344 1163.5938,249.2813 1163.5938,248.8906 C1163.5938,248.4375 1163.2031,248.0469 1162.7344,248.0469 C1162.5156,248.0469 1162.3125,248.125 1162.125,248.3125 C1161.6719,248.7969 1161.6719,248.7969 1161.4844,248.8906 C1161.0625,249.1563 1160.375,249.2813 1159.6094,249.2813 C1157.5625,249.2813 1156.2656,248.1875 1156.2656,246.4844 L1156.2656,245.3906 C1156.2656,243.6094 1157.5156,242.2969 1159.25,242.2969 C1159.8281,242.2969 1160.4375,242.4531 1160.9063,242.7031 C1161.3906,242.9844 1161.5625,243.2031 1161.6563,243.6094 C1161.7188,244.0156 1161.75,244.1406 1161.8906,244.2656 C1162.0313,244.4063 1162.2656,244.5156 1162.4844,244.5156 C1162.75,244.5156 1163.0156,244.375 1163.1875,244.1563 C1163.2969,244 1163.3281,243.8125 1163.3281,243.3906 L1163.3281,241.9688 C1163.3281,241.5313 1163.3125,241.4063 1163.2188,241.25 C1163.0625,240.9844 1162.7813,240.8438 1162.4844,240.8438 C1162.1875,240.8438 1161.9844,240.9375 1161.7656,241.25 L1161.5938,241.1719 Z " fill="#000000"/><text fill="#000000" font-family="sans-serif" font-size="12" lengthAdjust="spacingAndGlyphs" textLength="105" x="1178.75" y="249.6543">ServidorAuditoria</text><line style="stroke:#A80036;stroke-width:1.5;" x1="1120.5" x2="1310.5" y1="261.5" y2="261.5"/><line style="stroke:#A80036;stroke-width:1.5;" x1="1120.5" x2="1310.5" y1="269.5" y2="269.5"/><ellipse cx="1130.5" cy="280.5" fill="#84BE84" rx="3" ry="3" style="stroke:#038048;stroke-width:1.0;"/><text fill="#000000" font-family="sans-serif" font-size="11" lengthAdjust="spacingAndGlyphs" textLength="166" x="1139.5" y="283.7104">registraVoto(voto: Voto): void</text><!--MD5=[40acd3b783f04d82012a578f692d2876]
class ArmazenamentoExterno--><rect codeLine="41" fill="#FEFECE" filter="url(#fl1mrnq5ghzhn)" height="73.6094" id="ArmazenamentoExterno" style="stroke:#A80036;stroke-width:1.5;" width="192" x="1346.5" y="223"/><ellipse cx="1368.7" cy="239" fill="#ADD1B2" rx="11" ry="11" style="stroke:#A80036;stroke-width:1.0;"/><path d="M1371.0438,234.6719 C1370.1063,234.2344 1369.5125,234.0938 1368.6375,234.0938 C1366.0125,234.0938 1364.0125,236.1719 1364.0125,238.8906 L1364.0125,240.0156 C1364.0125,242.5938 1366.1219,244.4844 1369.0125,244.4844 C1370.2313,244.4844 1371.3875,244.1875 1372.1375,243.6406 C1372.7156,243.2344 1373.0438,242.7813 1373.0438,242.3906 C1373.0438,241.9375 1372.6531,241.5469 1372.1844,241.5469 C1371.9656,241.5469 1371.7625,241.625 1371.575,241.8125 C1371.1219,242.2969 1371.1219,242.2969 1370.9344,242.3906 C1370.5125,242.6563 1369.825,242.7813 1369.0594,242.7813 C1367.0125,242.7813 1365.7156,241.6875 1365.7156,239.9844 L1365.7156,238.8906 C1365.7156,237.1094 1366.9656,235.7969 1368.7,235.7969 C1369.2781,235.7969 1369.8875,235.9531 1370.3563,236.2031 C1370.8406,236.4844 1371.0125,236.7031 1371.1063,237.1094 C1371.1688,237.5156 1371.2,237.6406 1371.3406,237.7656 C1371.4813,237.9063 1371.7156,238.0156 1371.9344,238.0156 C1372.2,238.0156 1372.4656,237.875 1372.6375,237.6563 C1372.7469,237.5 1372.7781,237.3125 1372.7781,236.8906 L1372.7781,235.4688 C1372.7781,235.0313 1372.7625,234.9063 1372.6688,234.75 C1372.5125,234.4844 1372.2313,234.3438 1371.9344,234.3438 C1371.6375,234.3438 1371.4344,234.4375 1371.2156,234.75 L1371.0438,234.6719 Z " fill="#000000"/><text fill="#000000" font-family="sans-serif" font-size="12" lengthAdjust="spacingAndGlyphs" textLength="144" x="1384.3" y="243.1543">ArmazenamentoExterno</text><line style="stroke:#A80036;stroke-width:1.5;" x1="1347.5" x2="1537.5" y1="255" y2="255"/><rect fill="none" height="6" style="stroke:#C82930;stroke-width:1.0;" width="6" x="1354.5" y="263"/><text fill="#000000" font-family="sans-serif" font-size="11" lengthAdjust="spacingAndGlyphs" textLength="78" x="1366.5" y="269.2104">_votos: Voto[]</text><line style="stroke:#A80036;stroke-width:1.5;" x1="1347.5" x2="1537.5" y1="275.8047" y2="275.8047"/><ellipse cx="1357.5" cy="286.8047" fill="#84BE84" rx="3" ry="3" style="stroke:#038048;stroke-width:1.0;"/><text fill="#000000" font-family="sans-serif" font-size="11" lengthAdjust="spacingAndGlyphs" textLength="166" x="1366.5" y="290.0151">registraVoto(voto: Voto): void</text><!--MD5=[7e905a4fa9d835bc01546a938d85913f]
class Tela--><rect codeLine="45" fill="#FEFECE" filter="url(#fl1mrnq5ghzhn)" height="73.6094" id="Tela" style="stroke:#A80036;stroke-width:1.5;" width="294" x="2231.5" y="223"/><ellipse cx="2361.75" cy="239" fill="#ADD1B2" rx="11" ry="11" style="stroke:#A80036;stroke-width:1.0;"/><path d="M2364.0938,234.6719 C2363.1563,234.2344 2362.5625,234.0938 2361.6875,234.0938 C2359.0625,234.0938 2357.0625,236.1719 2357.0625,238.8906 L2357.0625,240.0156 C2357.0625,242.5938 2359.1719,244.4844 2362.0625,244.4844 C2363.2813,244.4844 2364.4375,244.1875 2365.1875,243.6406 C2365.7656,243.2344 2366.0938,242.7813 2366.0938,242.3906 C2366.0938,241.9375 2365.7031,241.5469 2365.2344,241.5469 C2365.0156,241.5469 2364.8125,241.625 2364.625,241.8125 C2364.1719,242.2969 2364.1719,242.2969 2363.9844,242.3906 C2363.5625,242.6563 2362.875,242.7813 2362.1094,242.7813 C2360.0625,242.7813 2358.7656,241.6875 2358.7656,239.9844 L2358.7656,238.8906 C2358.7656,237.1094 2360.0156,235.7969 2361.75,235.7969 C2362.3281,235.7969 2362.9375,235.9531 2363.4063,236.2031 C2363.8906,236.4844 2364.0625,236.7031 2364.1563,237.1094 C2364.2188,237.5156 2364.25,237.6406 2364.3906,237.7656 C2364.5313,237.9063 2364.7656,238.0156 2364.9844,238.0156 C2365.25,238.0156 2365.5156,237.875 2365.6875,237.6563 C2365.7969,237.5 2365.8281,237.3125 2365.8281,236.8906 L2365.8281,235.4688 C2365.8281,235.0313 2365.8125,234.9063 2365.7188,234.75 C2365.5625,234.4844 2365.2813,234.3438 2364.9844,234.3438 C2364.6875,234.3438 2364.4844,234.4375 2364.2656,234.75 L2364.0938,234.6719 Z " fill="#000000"/><text fill="#000000" font-family="sans-serif" font-size="12" lengthAdjust="spacingAndGlyphs" textLength="25" x="2382.25" y="243.1543">Tela</text><line style="stroke:#A80036;stroke-width:1.5;" x1="2232.5" x2="2524.5" y1="255" y2="255"/><line style="stroke:#A80036;stroke-width:1.5;" x1="2232.5" x2="2524.5" y1="263" y2="263"/><ellipse cx="2242.5" cy="274" fill="#84BE84" rx="3" ry="3" style="stroke:#038048;stroke-width:1.0;"/><text fill="#000000" font-family="sans-serif" font-size="11" lengthAdjust="spacingAndGlyphs" textLength="268" x="2251.5" y="277.2104">exibeCandidatos(candidatos: Candidato[]): void</text><ellipse cx="2242.5" cy="286.8047" fill="#84BE84" rx="3" ry="3" style="stroke:#038048;stroke-width:1.0;"/><text fill="#000000" font-family="sans-serif" font-size="11" lengthAdjust="spacingAndGlyphs" textLength="92" x="2251.5" y="290.0151">feedback(): void</text><!--MD5=[42ca00c9cf8168ab69f8fad430581899]
class DisplayBraille--><rect codeLine="49" fill="#FEFECE" filter="url(#fl1mrnq5ghzhn)" height="60.8047" id="DisplayBraille" style="stroke:#A80036;stroke-width:1.5;" width="294" x="1573.5" y="229.5"/><ellipse cx="1675.75" cy="245.5" fill="#ADD1B2" rx="11" ry="11" style="stroke:#A80036;stroke-width:1.0;"/><path d="M1678.0938,241.1719 C1677.1563,240.7344 1676.5625,240.5938 1675.6875,240.5938 C1673.0625,240.5938 1671.0625,242.6719 1671.0625,245.3906 L1671.0625,246.5156 C1671.0625,249.0938 1673.1719,250.9844 1676.0625,250.9844 C1677.2813,250.9844 1678.4375,250.6875 1679.1875,250.1406 C1679.7656,249.7344 1680.0938,249.2813 1680.0938,248.8906 C1680.0938,248.4375 1679.7031,248.0469 1679.2344,248.0469 C1679.0156,248.0469 1678.8125,248.125 1678.625,248.3125 C1678.1719,248.7969 1678.1719,248.7969 1677.9844,248.8906 C1677.5625,249.1563 1676.875,249.2813 1676.1094,249.2813 C1674.0625,249.2813 1672.7656,248.1875 1672.7656,246.4844 L1672.7656,245.3906 C1672.7656,243.6094 1674.0156,242.2969 1675.75,242.2969 C1676.3281,242.2969 1676.9375,242.4531 1677.4063,242.7031 C1677.8906,242.9844 1678.0625,243.2031 1678.1563,243.6094 C1678.2188,244.0156 1678.25,244.1406 1678.3906,244.2656 C1678.5313,244.4063 1678.7656,244.5156 1678.9844,244.5156 C1679.25,244.5156 1679.5156,244.375 1679.6875,244.1563 C1679.7969,244 1679.8281,243.8125 1679.8281,243.3906 L1679.8281,241.9688 C1679.8281,241.5313 1679.8125,241.4063 1679.7188,241.25 C1679.5625,240.9844 1679.2813,240.8438 1678.9844,240.8438 C1678.6875,240.8438 1678.4844,240.9375 1678.2656,241.25 L1678.0938,241.1719 Z " fill="#000000"/><text fill="#000000" font-family="sans-serif" font-size="12" lengthAdjust="spacingAndGlyphs" textLength="81" x="1696.25" y="249.6543">DisplayBraille</text><line style="stroke:#A80036;stroke-width:1.5;" x1="1574.5" x2="1866.5" y1="261.5" y2="261.5"/><line style="stroke:#A80036;stroke-width:1.5;" x1="1574.5" x2="1866.5" y1="269.5" y2="269.5"/><ellipse cx="1584.5" cy="280.5" fill="#84BE84" rx="3" ry="3" style="stroke:#038048;stroke-width:1.0;"/><text fill="#000000" font-family="sans-serif" font-size="11" lengthAdjust="spacingAndGlyphs" textLength="268" x="1593.5" y="283.7104">exibeCandidatos(candidatos: Candidato[]): void</text><!--MD5=[408bc369688b16f6cef47f7eb39d1133]
class FoneDeOuvido--><rect codeLine="52" fill="#FEFECE" filter="url(#fl1mrnq5ghzhn)" height="60.8047" id="FoneDeOuvido" style="stroke:#A80036;stroke-width:1.5;" width="294" x="1902.5" y="229.5"/><ellipse cx="2000.25" cy="245.5" fill="#ADD1B2" rx="11" ry="11" style="stroke:#A80036;stroke-width:1.0;"/><path d="M2002.5938,241.1719 C2001.6563,240.7344 2001.0625,240.5938 2000.1875,240.5938 C1997.5625,240.5938 1995.5625,242.6719 1995.5625,245.3906 L1995.5625,246.5156 C1995.5625,249.0938 1997.6719,250.9844 2000.5625,250.9844 C2001.7813,250.9844 2002.9375,250.6875 2003.6875,250.1406 C2004.2656,249.7344 2004.5938,249.2813 2004.5938,248.8906 C2004.5938,248.4375 2004.2031,248.0469 2003.7344,248.0469 C2003.5156,248.0469 2003.3125,248.125 2003.125,248.3125 C2002.6719,248.7969 2002.6719,248.7969 2002.4844,248.8906 C2002.0625,249.1563 2001.375,249.2813 2000.6094,249.2813 C1998.5625,249.2813 1997.2656,248.1875 1997.2656,246.4844 L1997.2656,245.3906 C1997.2656,243.6094 1998.5156,242.2969 2000.25,242.2969 C2000.8281,242.2969 2001.4375,242.4531 2001.9063,242.7031 C2002.3906,242.9844 2002.5625,243.2031 2002.6563,243.6094 C2002.7188,244.0156 2002.75,244.1406 2002.8906,244.2656 C2003.0313,244.4063 2003.2656,244.5156 2003.4844,244.5156 C2003.75,244.5156 2004.0156,244.375 2004.1875,244.1563 C2004.2969,244 2004.3281,243.8125 2004.3281,243.3906 L2004.3281,241.9688 C2004.3281,241.5313 2004.3125,241.4063 2004.2188,241.25 C2004.0625,240.9844 2003.7813,240.8438 2003.4844,240.8438 C2003.1875,240.8438 2002.9844,240.9375 2002.7656,241.25 L2002.5938,241.1719 Z " fill="#000000"/><text fill="#000000" font-family="sans-serif" font-size="12" lengthAdjust="spacingAndGlyphs" textLength="90" x="2020.75" y="249.6543">FoneDeOuvido</text><line style="stroke:#A80036;stroke-width:1.5;" x1="1903.5" x2="2195.5" y1="261.5" y2="261.5"/><line style="stroke:#A80036;stroke-width:1.5;" x1="1903.5" x2="2195.5" y1="269.5" y2="269.5"/><ellipse cx="1913.5" cy="280.5" fill="#84BE84" rx="3" ry="3" style="stroke:#038048;stroke-width:1.0;"/><text fill="#000000" font-family="sans-serif" font-size="11" lengthAdjust="spacingAndGlyphs" textLength="268" x="1922.5" y="283.7104">exibeCandidatos(candidatos: Candidato[]): void</text><!--MD5=[24bf4767a09f4f1b5da41c6005cdbd34]
class TecladoFisico--><rect codeLine="55" fill="#FEFECE" filter="url(#fl1mrnq5ghzhn)" height="60.8047" id="TecladoFisico" style="stroke:#A80036;stroke-width:1.5;" width="134" x="2744.5" y="229.5"/><ellipse cx="2768.05" cy="245.5" fill="#ADD1B2" rx="11" ry="11" style="stroke:#A80036;stroke-width:1.0;"/><path d="M2770.3938,241.1719 C2769.4563,240.7344 2768.8625,240.5938 2767.9875,240.5938 C2765.3625,240.5938 2763.3625,242.6719 2763.3625,245.3906 L2763.3625,246.5156 C2763.3625,249.0938 2765.4719,250.9844 2768.3625,250.9844 C2769.5813,250.9844 2770.7375,250.6875 2771.4875,250.1406 C2772.0656,249.7344 2772.3938,249.2813 2772.3938,248.8906 C2772.3938,248.4375 2772.0031,248.0469 2771.5344,248.0469 C2771.3156,248.0469 2771.1125,248.125 2770.925,248.3125 C2770.4719,248.7969 2770.4719,248.7969 2770.2844,248.8906 C2769.8625,249.1563 2769.175,249.2813 2768.4094,249.2813 C2766.3625,249.2813 2765.0656,248.1875 2765.0656,246.4844 L2765.0656,245.3906 C2765.0656,243.6094 2766.3156,242.2969 2768.05,242.2969 C2768.6281,242.2969 2769.2375,242.4531 2769.7063,242.7031 C2770.1906,242.9844 2770.3625,243.2031 2770.4563,243.6094 C2770.5188,244.0156 2770.55,244.1406 2770.6906,244.2656 C2770.8313,244.4063 2771.0656,244.5156 2771.2844,244.5156 C2771.55,244.5156 2771.8156,244.375 2771.9875,244.1563 C2772.0969,244 2772.1281,243.8125 2772.1281,243.3906 L2772.1281,241.9688 C2772.1281,241.5313 2772.1125,241.4063 2772.0188,241.25 C2771.8625,240.9844 2771.5813,240.8438 2771.2844,240.8438 C2770.9875,240.8438 2770.7844,240.9375 2770.5656,241.25 L2770.3938,241.1719 Z " fill="#000000"/><text fill="#000000" font-family="sans-serif" font-size="12" lengthAdjust="spacingAndGlyphs" textLength="83" x="2783.95" y="249.6543">TecladoFisico</text><line style="stroke:#A80036;stroke-width:1.5;" x1="2745.5" x2="2877.5" y1="261.5" y2="261.5"/><line style="stroke:#A80036;stroke-width:1.5;" x1="2745.5" x2="2877.5" y1="269.5" y2="269.5"/><ellipse cx="2755.5" cy="280.5" fill="#84BE84" rx="3" ry="3" style="stroke:#038048;stroke-width:1.0;"/><text fill="#000000" font-family="sans-serif" font-size="11" lengthAdjust="spacingAndGlyphs" textLength="108" x="2764.5" y="283.7104">recebeVoto(): Voto</text><!--MD5=[06552169b5c5e3470bde195d35742262]
class TouchScreen--><rect codeLine="58" fill="#FEFECE" filter="url(#fl1mrnq5ghzhn)" height="60.8047" id="TouchScreen" style="stroke:#A80036;stroke-width:1.5;" width="134" x="2913.5" y="229.5"/><ellipse cx="2938.85" cy="245.5" fill="#ADD1B2" rx="11" ry="11" style="stroke:#A80036;stroke-width:1.0;"/><path d="M2941.1938,241.1719 C2940.2563,240.7344 2939.6625,240.5938 2938.7875,240.5938 C2936.1625,240.5938 2934.1625,242.6719 2934.1625,245.3906 L2934.1625,246.5156 C2934.1625,249.0938 2936.2719,250.9844 2939.1625,250.9844 C2940.3813,250.9844 2941.5375,250.6875 2942.2875,250.1406 C2942.8656,249.7344 2943.1938,249.2813 2943.1938,248.8906 C2943.1938,248.4375 2942.8031,248.0469 2942.3344,248.0469 C2942.1156,248.0469 2941.9125,248.125 2941.725,248.3125 C2941.2719,248.7969 2941.2719,248.7969 2941.0844,248.8906 C2940.6625,249.1563 2939.975,249.2813 2939.2094,249.2813 C2937.1625,249.2813 2935.8656,248.1875 2935.8656,246.4844 L2935.8656,245.3906 C2935.8656,243.6094 2937.1156,242.2969 2938.85,242.2969 C2939.4281,242.2969 2940.0375,242.4531 2940.5063,242.7031 C2940.9906,242.9844 2941.1625,243.2031 2941.2563,243.6094 C2941.3188,244.0156 2941.35,244.1406 2941.4906,244.2656 C2941.6313,244.4063 2941.8656,244.5156 2942.0844,244.5156 C2942.35,244.5156 2942.6156,244.375 2942.7875,244.1563 C2942.8969,244 2942.9281,243.8125 2942.9281,243.3906 L2942.9281,241.9688 C2942.9281,241.5313 2942.9125,241.4063 2942.8188,241.25 C2942.6625,240.9844 2942.3813,240.8438 2942.0844,240.8438 C2941.7875,240.8438 2941.5844,240.9375 2941.3656,241.25 L2941.1938,241.1719 Z " fill="#000000"/><text fill="#000000" font-family="sans-serif" font-size="12" lengthAdjust="spacingAndGlyphs" textLength="79" x="2955.15" y="249.6543">TouchScreen</text><line style="stroke:#A80036;stroke-width:1.5;" x1="2914.5" x2="3046.5" y1="261.5" y2="261.5"/><line style="stroke:#A80036;stroke-width:1.5;" x1="2914.5" x2="3046.5" y1="269.5" y2="269.5"/><ellipse cx="2924.5" cy="280.5" fill="#84BE84" rx="3" ry="3" style="stroke:#038048;stroke-width:1.0;"/><text fill="#000000" font-family="sans-serif" font-size="11" lengthAdjust="spacingAndGlyphs" textLength="108" x="2933.5" y="283.7104">recebeVoto(): Voto</text><!--MD5=[3bba19e853d86f5c5c464c5d3f4a10e5]
class AltoFalante--><rect codeLine="61" fill="#FEFECE" filter="url(#fl1mrnq5ghzhn)" height="60.8047" id="AltoFalante" style="stroke:#A80036;stroke-width:1.5;" width="118" x="2572.5" y="229.5"/><ellipse cx="2596.5" cy="245.5" fill="#ADD1B2" rx="11" ry="11" style="stroke:#A80036;stroke-width:1.0;"/><path d="M2598.8438,241.1719 C2597.9063,240.7344 2597.3125,240.5938 2596.4375,240.5938 C2593.8125,240.5938 2591.8125,242.6719 2591.8125,245.3906 L2591.8125,246.5156 C2591.8125,249.0938 2593.9219,250.9844 2596.8125,250.9844 C2598.0313,250.9844 2599.1875,250.6875 2599.9375,250.1406 C2600.5156,249.7344 2600.8438,249.2813 2600.8438,248.8906 C2600.8438,248.4375 2600.4531,248.0469 2599.9844,248.0469 C2599.7656,248.0469 2599.5625,248.125 2599.375,248.3125 C2598.9219,248.7969 2598.9219,248.7969 2598.7344,248.8906 C2598.3125,249.1563 2597.625,249.2813 2596.8594,249.2813 C2594.8125,249.2813 2593.5156,248.1875 2593.5156,246.4844 L2593.5156,245.3906 C2593.5156,243.6094 2594.7656,242.2969 2596.5,242.2969 C2597.0781,242.2969 2597.6875,242.4531 2598.1563,242.7031 C2598.6406,242.9844 2598.8125,243.2031 2598.9063,243.6094 C2598.9688,244.0156 2599,244.1406 2599.1406,244.2656 C2599.2813,244.4063 2599.5156,244.5156 2599.7344,244.5156 C2600,244.5156 2600.2656,244.375 2600.4375,244.1563 C2600.5469,244 2600.5781,243.8125 2600.5781,243.3906 L2600.5781,241.9688 C2600.5781,241.5313 2600.5625,241.4063 2600.4688,241.25 C2600.3125,240.9844 2600.0313,240.8438 2599.7344,240.8438 C2599.4375,240.8438 2599.2344,240.9375 2599.0156,241.25 L2598.8438,241.1719 Z " fill="#000000"/><text fill="#000000" font-family="sans-serif" font-size="12" lengthAdjust="spacingAndGlyphs" textLength="66" x="2612.5" y="249.6543">AltoFalante</text><line style="stroke:#A80036;stroke-width:1.5;" x1="2573.5" x2="2689.5" y1="261.5" y2="261.5"/><line style="stroke:#A80036;stroke-width:1.5;" x1="2573.5" x2="2689.5" y1="269.5" y2="269.5"/><ellipse cx="2583.5" cy="280.5" fill="#84BE84" rx="3" ry="3" style="stroke:#038048;stroke-width:1.0;"/><text fill="#000000" font-family="sans-serif" font-size="11" lengthAdjust="spacingAndGlyphs" textLength="92" x="2592.5" y="283.7104">feedback(): void</text><!--MD5=[ea9ad3a001841230fd47d40b217cc342]
class Urna--><rect codeLine="64" fill="#FEFECE" filter="url(#fl1mrnq5ghzhn)" height="214.4609" id="Urna" style="stroke:#A80036;stroke-width:1.5;" width="443" x="187" y="153"/><ellipse cx="390.25" cy="169" fill="#ADD1B2" rx="11" ry="11" style="stroke:#A80036;stroke-width:1.0;"/><path d="M392.5938,164.6719 C391.6563,164.2344 391.0625,164.0938 390.1875,164.0938 C387.5625,164.0938 385.5625,166.1719 385.5625,168.8906 L385.5625,170.0156 C385.5625,172.5938 387.6719,174.4844 390.5625,174.4844 C391.7813,174.4844 392.9375,174.1875 393.6875,173.6406 C394.2656,173.2344 394.5938,172.7813 394.5938,172.3906 C394.5938,171.9375 394.2031,171.5469 393.7344,171.5469 C393.5156,171.5469 393.3125,171.625 393.125,171.8125 C392.6719,172.2969 392.6719,172.2969 392.4844,172.3906 C392.0625,172.6563 391.375,172.7813 390.6094,172.7813 C388.5625,172.7813 387.2656,171.6875 387.2656,169.9844 L387.2656,168.8906 C387.2656,167.1094 388.5156,165.7969 390.25,165.7969 C390.8281,165.7969 391.4375,165.9531 391.9063,166.2031 C392.3906,166.4844 392.5625,166.7031 392.6563,167.1094 C392.7188,167.5156 392.75,167.6406 392.8906,167.7656 C393.0313,167.9063 393.2656,168.0156 393.4844,168.0156 C393.75,168.0156 394.0156,167.875 394.1875,167.6563 C394.2969,167.5 394.3281,167.3125 394.3281,166.8906 L394.3281,165.4688 C394.3281,165.0313 394.3125,164.9063 394.2188,164.75 C394.0625,164.4844 393.7813,164.3438 393.4844,164.3438 C393.1875,164.3438 392.9844,164.4375 392.7656,164.75 L392.5938,164.6719 Z " fill="#000000"/><text fill="#000000" font-family="sans-serif" font-size="12" lengthAdjust="spacingAndGlyphs" textLength="28" x="410.75" y="173.1543">Urna</text><line style="stroke:#A80036;stroke-width:1.5;" x1="188" x2="629" y1="185" y2="185"/><rect fill="none" height="6" style="stroke:#C82930;stroke-width:1.0;" width="6" x="195" y="193"/><text fill="#000000" font-family="sans-serif" font-size="11" lengthAdjust="spacingAndGlyphs" textLength="118" x="207" y="199.2104">_zonaEleitoral: string</text><rect fill="none" height="6" style="stroke:#C82930;stroke-width:1.0;" width="6" x="195" y="205.8047"/><text fill="#000000" font-family="sans-serif" font-size="11" lengthAdjust="spacingAndGlyphs" textLength="80" x="207" y="212.0151">_secao: String</text><ellipse cx="198" cy="221.6094" fill="none" rx="3" ry="3" style="stroke:#038048;stroke-width:1.0;"/><text fill="#000000" font-family="sans-serif" font-size="11" lengthAdjust="spacingAndGlyphs" textLength="238" x="207" y="224.8198">armazenamento: ArmazenamentoInterno</text><ellipse cx="198" cy="234.4141" fill="none" rx="3" ry="3" style="stroke:#038048;stroke-width:1.0;"/><text fill="#000000" font-family="sans-serif" font-size="11" lengthAdjust="spacingAndGlyphs" textLength="144" x="207" y="237.6245">mesario: SistemaMesario</text><ellipse cx="198" cy="247.2188" fill="none" rx="3" ry="3" style="stroke:#038048;stroke-width:1.0;"/><text fill="#000000" font-family="sans-serif" font-size="11" lengthAdjust="spacingAndGlyphs" textLength="271" x="207" y="250.4292">dispositivosDeExibicao: DispositivoDeExibicao[]</text><ellipse cx="198" cy="260.0234" fill="none" rx="3" ry="3" style="stroke:#038048;stroke-width:1.0;"/><text fill="#000000" font-family="sans-serif" font-size="11" lengthAdjust="spacingAndGlyphs" textLength="417" x="207" y="263.2339">dispositivosDeExibicaoComImagem: DispositivoDeExibicaoComImagem[]</text><ellipse cx="198" cy="272.8281" fill="none" rx="3" ry="3" style="stroke:#038048;stroke-width:1.0;"/><text fill="#000000" font-family="sans-serif" font-size="11" lengthAdjust="spacingAndGlyphs" textLength="263" x="207" y="276.0386">dispositivosDeEntrada: DispositivoDeEntrada[]</text><ellipse cx="198" cy="285.6328" fill="none" rx="3" ry="3" style="stroke:#038048;stroke-width:1.0;"/><text fill="#000000" font-family="sans-serif" font-size="11" lengthAdjust="spacingAndGlyphs" textLength="284" x="207" y="288.8433">dispositivosDeFeedback: DispositvoDeFeedback[]</text><ellipse cx="198" cy="298.4375" fill="none" rx="3" ry="3" style="stroke:#038048;stroke-width:1.0;"/><text fill="#000000" font-family="sans-serif" font-size="11" lengthAdjust="spacingAndGlyphs" textLength="269" x="207" y="301.6479">dispositivosDeRegistro: DispositivoDeRegistro[]</text><ellipse cx="198" cy="311.2422" fill="none" rx="3" ry="3" style="stroke:#038048;stroke-width:1.0;"/><text fill="#000000" font-family="sans-serif" font-size="11" lengthAdjust="spacingAndGlyphs" textLength="112" x="207" y="314.4526">zonaEleitoral: string</text><ellipse cx="198" cy="324.0469" fill="none" rx="3" ry="3" style="stroke:#038048;stroke-width:1.0;"/><text fill="#000000" font-family="sans-serif" font-size="11" lengthAdjust="spacingAndGlyphs" textLength="74" x="207" y="327.2573">secao: String</text><line style="stroke:#A80036;stroke-width:1.5;" x1="188" x2="629" y1="333.8516" y2="333.8516"/><ellipse cx="198" cy="344.8516" fill="#84BE84" rx="3" ry="3" style="stroke:#038048;stroke-width:1.0;"/><text fill="#000000" font-family="sans-serif" font-size="11" lengthAdjust="spacingAndGlyphs" textLength="135" x="207" y="348.062">exibeCandidatos(): void</text><ellipse cx="198" cy="357.6563" fill="#84BE84" rx="3" ry="3" style="stroke:#038048;stroke-width:1.0;"/><text fill="#000000" font-family="sans-serif" font-size="11" lengthAdjust="spacingAndGlyphs" textLength="289" x="207" y="360.8667">processaVoto(entrada: DispositivoDeEntrada): void</text><!--MD5=[ff6356bef692bad59f877521aa0f6a63]
reverse link DispositivoDeRegistro to ArmazenamentoInterno--><path d="M999.987,88.142 C959.371,105.128 913.151,127.24 874.5,153 C852.789,167.47 831.307,186.193 812.998,203.869 " fill="none" id="DispositivoDeRegistro-backto-ArmazenamentoInterno" style="stroke:#A80036;stroke-width:1.0;stroke-dasharray:7.0,7.0;"/><polygon fill="none" points="997.346,81.66,1018.51,80.584,1002.636,94.622,997.346,81.66" style="stroke:#A80036;stroke-width:1.0;"/><!--MD5=[9baa86a03ce85e3ac50759e813895ff6]
reverse link DispositivoDeRegistro to ImpressoraTermica--><path d="M1075.67,98.541 C1053.82,138.76 1023.19,195.143 1004.66,229.254 " fill="none" id="DispositivoDeRegistro-backto-ImpressoraTermica" style="stroke:#A80036;stroke-width:1.0;stroke-dasharray:7.0,7.0;"/><polygon fill="none" points="1069.61,95.034,1085.31,80.801,1081.91,101.717,1069.61,95.034" style="stroke:#A80036;stroke-width:1.0;"/><!--MD5=[475c811c01206e3590e6ee392c3f5f44]
reverse link DispositivoDeRegistro to ServidorAuditoria--><path d="M1127.56,98.541 C1149.6,138.76 1180.5,195.143 1199.2,229.254 " fill="none" id="DispositivoDeRegistro-backto-ServidorAuditoria" style="stroke:#A80036;stroke-width:1.0;stroke-dasharray:7.0,7.0;"/><polygon fill="none" points="1121.31,101.704,1117.83,80.801,1133.58,94.975,1121.31,101.704" style="stroke:#A80036;stroke-width:1.0;"/><!--MD5=[a5e631f99bb53daaeba68a19de72aa0c]
reverse link DispositivoDeRegistro to ArmazenamentoExterno--><path d="M1202.71,88.125 C1243.38,105.137 1289.72,127.273 1328.5,153 C1358.45,172.868 1388.05,200.703 1409.58,222.864 " fill="none" id="DispositivoDeRegistro-backto-ArmazenamentoExterno" style="stroke:#A80036;stroke-width:1.0;stroke-dasharray:7.0,7.0;"/><polygon fill="none" points="1200.04,94.596,1184.17,80.555,1205.33,81.635,1200.04,94.596" style="stroke:#A80036;stroke-width:1.0;"/><!--MD5=[5aaae5db7357b3ff6b045f6da483b9bb]
reverse link DispositivoDeExibicaoComImagem to Tela--><path d="M2368.62,100.95 C2370.97,138.565 2374.14,189.245 2376.25,222.966 " fill="none" id="DispositivoDeExibicaoComImagem-backto-Tela" style="stroke:#A80036;stroke-width:1.0;stroke-dasharray:7.0,7.0;"/><polygon fill="none" points="2361.62,101.199,2367.36,80.801,2375.6,100.326,2361.62,101.199" style="stroke:#A80036;stroke-width:1.0;"/><!--MD5=[0dbce2ab9bb7a09dbfc196c92340d632]
reverse link DispositvoDeFeedback to Tela--><path d="M2579.77,93.526 C2533.44,131.622 2466.21,186.887 2422.43,222.883 " fill="none" id="DispositvoDeFeedback-backto-Tela" style="stroke:#A80036;stroke-width:1.0;stroke-dasharray:7.0,7.0;"/><polygon fill="none" points="2575.63,87.875,2595.52,80.58,2584.52,98.689,2575.63,87.875" style="stroke:#A80036;stroke-width:1.0;"/><!--MD5=[932a1d9b22eb830dce4ca44ad2b7a212]
reverse link DispositivoDeExibicao to DisplayBraille--><path d="M1843.62,96.912 C1813,137.225 1769.36,194.68 1743.1,229.254 " fill="none" id="DispositivoDeExibicao-backto-DisplayBraille" style="stroke:#A80036;stroke-width:1.0;stroke-dasharray:7.0,7.0;"/><polygon fill="none" points="1838.19,92.493,1855.86,80.801,1849.34,100.962,1838.19,92.493" style="stroke:#A80036;stroke-width:1.0;"/><!--MD5=[04e1baa37e6ce47390ff1d30bf405454]
reverse link DispositivoDeExibicao to FoneDeOuvido--><path d="M1915.8,96.373 C1948.96,136.711 1996.49,194.526 2025.05,229.254 " fill="none" id="DispositivoDeExibicao-backto-FoneDeOuvido" style="stroke:#A80036;stroke-width:1.0;stroke-dasharray:7.0,7.0;"/><polygon fill="none" points="1910.29,100.696,1903,80.801,1921.11,91.805,1910.29,100.696" style="stroke:#A80036;stroke-width:1.0;"/><!--MD5=[5f9d34ddc5b3d71e1b5494c488878ddc]
reverse link DispositivoDeEntrada to TecladoFisico--><path d="M2825.96,100.74 C2822.3,140.793 2817.28,195.761 2814.22,229.254 " fill="none" id="DispositivoDeEntrada-backto-TecladoFisico" style="stroke:#A80036;stroke-width:1.0;stroke-dasharray:7.0,7.0;"/><polygon fill="none" points="2818.99,100.082,2827.78,80.801,2832.93,101.355,2818.99,100.082" style="stroke:#A80036;stroke-width:1.0;"/><!--MD5=[9dc60e7e3915bc57059e23f6f96447bc]
reverse link DispositivoDeEntrada to TouchScreen--><path d="M2863.8,97.182 C2892.87,137.481 2934.17,194.757 2959.05,229.254 " fill="none" id="DispositivoDeEntrada-backto-TouchScreen" style="stroke:#A80036;stroke-width:1.0;stroke-dasharray:7.0,7.0;"/><polygon fill="none" points="2858.01,101.118,2851.99,80.801,2869.37,92.929,2858.01,101.118" style="stroke:#A80036;stroke-width:1.0;"/><!--MD5=[6991ae9d59c0b8f39e58a9e730eef6fb]
reverse link DispositvoDeFeedback to AltoFalante--><path d="M2631.5,101.017 C2631.5,141.047 2631.5,195.838 2631.5,229.254 " fill="none" id="DispositvoDeFeedback-backto-AltoFalante" style="stroke:#A80036;stroke-width:1.0;stroke-dasharray:7.0,7.0;"/><polygon fill="none" points="2624.5,100.801,2631.5,80.801,2638.5,100.801,2624.5,100.801" style="stroke:#A80036;stroke-width:1.0;"/><!--MD5=[24d431b04f7bb51aef811268b9d69493]
link SistemaMesario to Candidato--><!--MD5=[29902dd0970877d7675e2a208fb0a755]
link SistemaMesario to Voto--><!--MD5=[923ac464b1a1317e1ea2257c83d8e7a9]
link Voto to Urna--><!--MD5=[29d39a8340de593fd5629867d06c777d]
@startuml
class SistemaMesario {
    +iniciaNovaVotacao(): void
}
class Candidato {
    +numero: number
    +nome: string
    +imagem: ImageBitmap
}
class Voto {
    +horario: Date
    +numero: number
}
abstract class DispositivoDeRegistro {
    +{abstract} registraVoto(voto: Voto): void
}
abstract class DispositivoDeExibicao {
    +{abstract} exibeCandidatos(candidatos: Candidato[]): void
}
abstract class DispositivoDeExibicaoComImagem {
    +{abstract} exibeCandidatos(candidatos: Candidato[]): void
}
abstract class DispositivoDeEntrada {
    +{abstract} recebeVoto(): Voto
}
abstract class DispositvoDeFeedback {
    +{abstract} feedback(): void
}
class ArmazenamentoInterno implements DispositivoDeRegistro {
    -_candidatos: Candidato[]
    -_votos: Voto[]
    +registraVoto(voto: Voto): void
    +votos: Voto[]
    +candidatos: Candidato[]
}
class ImpressoraTermica implements DispositivoDeRegistro {
    +registraVoto(voto: Voto): void
}
class ServidorAuditoria implements DispositivoDeRegistro {
    +registraVoto(voto: Voto): void
}
class ArmazenamentoExterno implements DispositivoDeRegistro {
    -_votos: Voto[]
    +registraVoto(voto: Voto): void
}
class Tela implements DispositivoDeExibicaoComImagem, DispositvoDeFeedback {
    +exibeCandidatos(candidatos: Candidato[]): void
    +feedback(): void
}
class DisplayBraille implements DispositivoDeExibicao {
    +exibeCandidatos(candidatos: Candidato[]): void
}
class FoneDeOuvido implements DispositivoDeExibicao {
    +exibeCandidatos(candidatos: Candidato[]): void
}
class TecladoFisico implements DispositivoDeEntrada {
    +recebeVoto(): Voto
}
class TouchScreen implements DispositivoDeEntrada {
    +recebeVoto(): Voto
}
class AltoFalante implements DispositvoDeFeedback {
    +feedback(): void
}
class Urna {
    -_zonaEleitoral: string
    -_secao: String
    +armazenamento: ArmazenamentoInterno
    +mesario: SistemaMesario
    +dispositivosDeExibicao: DispositivoDeExibicao[]
    +dispositivosDeExibicaoComImagem: DispositivoDeExibicaoComImagem[]
    +dispositivosDeEntrada: DispositivoDeEntrada[]
    +dispositivosDeFeedback: DispositvoDeFeedback[]
    +dispositivosDeRegistro: DispositivoDeRegistro[]
    +zonaEleitoral: string
    +secao: String
    +exibeCandidatos(): void
    +processaVoto(entrada: DispositivoDeEntrada): void
}
@enduml

PlantUML version 1.2020.27beta3(Unknown compile time)
(GPL source distribution)
Java Runtime: Java(TM) SE Runtime Environment
JVM: Java HotSpot(TM) 64-Bit Server VM
Default Encoding: UTF-8
Language: en
Country: US
--></g></svg>